# xmcd CD database file
#
# Track frame offsets:
#	150
#	17287
#	32552
#	47195
#	65510
#	76792
#	88971
#	100371
#	114712
#	131319
#	142648
#	149413
#	160557
#	179416
#
# Disc length: 2547 seconds
#
# Revision: 0
# Processed by: cddbd v1.5.1PL2 Copyright (c) Steve Scherf et al.
# Submitted via: CDex 1.51
#
DISCID=af09f10e
DTITLE=Aki Takase - Rudi Mahall - Duet For Eric Dolphy
DYEAR=1997
DGENRE=Jazz
TTITLE0=17 West
TTITLE1=245
TTITLE2=Hat And Beard
TTITLE3=I'm Confessin'
TTITLE4=Something Sweet, Something Tender
TTITLE5=A Chotto Matte
TTITLE6=Les
TTITLE7=Gazzeloni
TTITLE8=Serene
TTITLE9=Misha's Slipper
TTITLE10=Straight Up and Down
TTITLE11=Rudi My Beer!
TTITLE12=The Prophet
TTITLE13=Miss Ann
EXTD=YEAR: 1997
EXTT0=
EXTT1=
EXTT2=
EXTT3=
EXTT4=
EXTT5=
EXTT6=
EXTT7=
EXTT8=
EXTT9=
EXTT10=
EXTT11=
EXTT12=
EXTT13=
PLAYORDER=
